G04 Layer: BottomLayer*
G04 EasyEDA v6.4.19.3, 2021-03-31T08:50:56+02:00*
G04 7e8d071977a24ced90268045b7a9a018,03b0b1bb86a94345b9bcc081285aab9b,10*
G04 Gerber Generator version 0.2*
G04 Scale: 100 percent, Rotated: No, Reflected: No *
G04 Dimensions in inches *
G04 leading zeros omitted , absolute positions ,3 integer and 6 decimal *
%FSLAX36Y36*%
%MOIN*%

%ADD11C,0.0157*%
%ADD12C,0.0787*%
%ADD14C,0.1575*%
%ADD15C,0.0244*%
%ADD28C,0.0600*%
%ADD30C,0.0669*%
%ADD31C,0.1181*%
%ADD32C,0.0554*%
%ADD33C,0.1173*%

%LPD*%
D11*
X2885000Y1467500D02*
G01*
X2885000Y1585000D01*
X3515000Y2215000D01*
X3515000Y2330000D01*
X3546199Y685799D02*
G01*
X3485799Y685799D01*
X2940000Y140000D01*
X2820000Y140000D01*
X3743000Y685799D02*
G01*
X3680799Y685799D01*
X3070000Y75000D01*
X2740000Y75000D01*
X2720000Y95000D01*
X2720000Y140000D01*
X5710000Y1381999D02*
G01*
X5543000Y1381999D01*
X4955000Y1970000D01*
X4955000Y2350000D01*
X4650000Y2655000D01*
X4650000Y2855000D01*
X2885000Y725000D02*
G01*
X2885000Y260000D01*
X2865000Y240000D01*
X2820000Y240000D01*
X3135000Y2230000D02*
G01*
X3345000Y2230000D01*
X6316000Y683998D02*
G01*
X6331999Y699998D01*
X6331999Y714000D01*
X2885000Y1467480D02*
G01*
X2885000Y725000D01*
G36*
X2485000Y990000D02*
G01*
X2545000Y990000D01*
X2545000Y930000D01*
X2485000Y930000D01*
G37*
D28*
G01*
X2515000Y1060000D03*
G01*
X2615000Y960000D03*
G01*
X2615000Y1060000D03*
G36*
X2486540Y173460D02*
G01*
X2553459Y173460D01*
X2553459Y106539D01*
X2486540Y106539D01*
G37*
D30*
G01*
X2520000Y240000D03*
G01*
X2620000Y140000D03*
G01*
X2620000Y240000D03*
G01*
X2720000Y140000D03*
G01*
X2720000Y240000D03*
G01*
X2820000Y140000D03*
G01*
X2820000Y240000D03*
D12*
G01*
X4550000Y2855000D03*
G01*
X4650000Y2855000D03*
G01*
X2081649Y2400000D03*
G01*
X2538350Y2400000D03*
G01*
X3253350Y2405000D03*
G01*
X2796649Y2405000D03*
D14*
G01*
X2742790Y2725000D03*
G01*
X3042010Y2720000D03*
G01*
X1967200Y2725000D03*
G01*
X1667989Y2725000D03*
D31*
G01*
X6401999Y2579000D03*
G01*
X6401059Y2199980D03*
G01*
X896700Y2395999D03*
G01*
X897640Y2775019D03*
G01*
X896700Y275999D03*
G01*
X897640Y655019D03*
D32*
G01*
X4443819Y1284209D03*
G01*
X4345389Y1284209D03*
G01*
X3743029Y1284209D03*
G01*
X3546180Y1284209D03*
G01*
X3546180Y685790D03*
G01*
X3743029Y685790D03*
G01*
X4345389Y685790D03*
G01*
X4443819Y685790D03*
D31*
G01*
X6331999Y714000D03*
G01*
X6331059Y334980D03*
D14*
G01*
X1545000Y952210D03*
G01*
X1540000Y652989D03*
G01*
X1545000Y1727800D03*
G01*
X1545000Y2027010D03*
D33*
G01*
X5710000Y1682010D03*
G01*
X5710000Y1382010D03*
G01*
X5710000Y335000D03*
G01*
X5710000Y635000D03*
D15*
G01*
X2885000Y725000D03*
G01*
X3515000Y2330000D03*
G01*
X3135000Y2230000D03*
G01*
X2885000Y1467480D03*
G01*
X3345000Y2230000D03*
M02*
