G04 Layer: TopPasteMaskLayer*
G04 EasyEDA v6.4.19.3, 2021-03-31T08:50:56+02:00*
G04 7e8d071977a24ced90268045b7a9a018,03b0b1bb86a94345b9bcc081285aab9b,10*
G04 Gerber Generator version 0.2*
G04 Scale: 100 percent, Rotated: No, Reflected: No *
G04 Dimensions in inches *
G04 leading zeros omitted , absolute positions ,3 integer and 6 decimal *
%FSLAX36Y36*%
%MOIN*%

%ADD16R,0.0847X0.0866*%
%ADD17R,0.0669X0.0433*%
%ADD20R,0.0717X0.0402*%
%ADD21R,0.0709X0.0413*%
%ADD23R,0.0669X0.0453*%
%ADD24R,0.0495X0.1350*%
%ADD26R,0.0394X0.0394*%

%LPD*%
D16*
G01*
X5915000Y2361610D03*
G01*
X5915000Y2188389D03*
D17*
G01*
X4465000Y2527910D03*
G01*
X4465000Y2642089D03*
G36*
X2540294Y1344729D02*
G01*
X2598365Y1344729D01*
X2598365Y1327009D01*
X2540294Y1327009D01*
G37*
G36*
X2540294Y1319140D02*
G01*
X2598365Y1319140D01*
X2598365Y1301419D01*
X2540294Y1301419D01*
G37*
G36*
X2540294Y1293539D02*
G01*
X2598365Y1293539D01*
X2598365Y1275820D01*
X2540294Y1275820D01*
G37*
G36*
X2540294Y1267950D02*
G01*
X2598365Y1267950D01*
X2598365Y1250229D01*
X2540294Y1250229D01*
G37*
G36*
X2771634Y1267950D02*
G01*
X2829705Y1267950D01*
X2829705Y1250229D01*
X2771634Y1250229D01*
G37*
G36*
X2771634Y1293539D02*
G01*
X2829705Y1293539D01*
X2829705Y1275820D01*
X2771634Y1275820D01*
G37*
G36*
X2771634Y1319140D02*
G01*
X2829705Y1319140D01*
X2829705Y1301419D01*
X2771634Y1301419D01*
G37*
G36*
X2771634Y1344729D02*
G01*
X2829705Y1344729D01*
X2829705Y1327009D01*
X2771634Y1327009D01*
G37*
G36*
X2543190Y602795D02*
G01*
X2603350Y602795D01*
X2603350Y577204D01*
X2543190Y577204D01*
G37*
G36*
X2543190Y552795D02*
G01*
X2603350Y552795D01*
X2603350Y527204D01*
X2543190Y527204D01*
G37*
G36*
X2543190Y502795D02*
G01*
X2603350Y502795D01*
X2603350Y477204D01*
X2543190Y477204D01*
G37*
G36*
X2543190Y452795D02*
G01*
X2603350Y452795D01*
X2603350Y427204D01*
X2543190Y427204D01*
G37*
G36*
X2756649Y452795D02*
G01*
X2816809Y452795D01*
X2816809Y427204D01*
X2756649Y427204D01*
G37*
G36*
X2756649Y502795D02*
G01*
X2816809Y502795D01*
X2816809Y477204D01*
X2756649Y477204D01*
G37*
G36*
X2756649Y552795D02*
G01*
X2816809Y552795D01*
X2816809Y527204D01*
X2756649Y527204D01*
G37*
G36*
X2756649Y602795D02*
G01*
X2816809Y602795D01*
X2816809Y577204D01*
X2756649Y577204D01*
G37*
G36*
X2749174Y815199D02*
G01*
X2820825Y815199D01*
X2820825Y775039D01*
X2749174Y775039D01*
G37*
G36*
X2749174Y704960D02*
G01*
X2820825Y704960D01*
X2820825Y664800D01*
X2749174Y664800D01*
G37*
D20*
G01*
X2800000Y1429879D03*
G01*
X2800000Y1540120D03*
D21*
G01*
X2465000Y1488980D03*
G01*
X2465000Y1611019D03*
G36*
X2234565Y2041689D02*
G01*
X2305434Y2041689D01*
X2305434Y2000349D01*
X2234565Y2000349D01*
G37*
G36*
X2234565Y1919650D02*
G01*
X2305434Y1919650D01*
X2305434Y1878310D01*
X2234565Y1878310D01*
G37*
G01*
X2465000Y1900940D03*
G01*
X2465000Y2019059D03*
G01*
X3250000Y603980D03*
G01*
X3250000Y726019D03*
G01*
X3250000Y918980D03*
G01*
X3250000Y1041019D03*
G01*
X3250000Y1248980D03*
G01*
X3250000Y1371019D03*
G01*
X3250000Y1558980D03*
G01*
X3250000Y1681019D03*
G01*
X3250000Y1898980D03*
G01*
X3250000Y2021019D03*
G01*
X2075000Y1898980D03*
G01*
X2075000Y2021019D03*
G01*
X2075000Y1558980D03*
G01*
X2075000Y1681019D03*
G01*
X2075000Y1253980D03*
G01*
X2075000Y1376019D03*
G01*
X2075000Y918980D03*
G01*
X2075000Y1041019D03*
G01*
X2075000Y603980D03*
G01*
X2075000Y726019D03*
G36*
X3577875Y2345749D02*
G01*
X3617245Y2345749D01*
X3617245Y2314250D01*
X3577875Y2314250D01*
G37*
G36*
X3577875Y2245749D02*
G01*
X3617245Y2245749D01*
X3617245Y2214250D01*
X3577875Y2214250D01*
G37*
G36*
X3833774Y2245749D02*
G01*
X3873145Y2245749D01*
X3873145Y2214250D01*
X3833774Y2214250D01*
G37*
G36*
X3833774Y2345749D02*
G01*
X3873145Y2345749D01*
X3873145Y2314250D01*
X3833774Y2314250D01*
G37*
G36*
X2236535Y1391379D02*
G01*
X2303464Y1391379D01*
X2303464Y1346100D01*
X2236535Y1346100D01*
G37*
G36*
X2236535Y1273270D02*
G01*
X2303464Y1273270D01*
X2303464Y1227990D01*
X2236535Y1227990D01*
G37*
D23*
G01*
X3250000Y286260D03*
G01*
X3250000Y404369D03*
G36*
X2986535Y631379D02*
G01*
X3053464Y631379D01*
X3053464Y586100D01*
X2986535Y586100D01*
G37*
G36*
X2986535Y513270D02*
G01*
X3053464Y513270D01*
X3053464Y467990D01*
X2986535Y467990D01*
G37*
G01*
X2375000Y606260D03*
G01*
X2375000Y724369D03*
G01*
X2075000Y286260D03*
G01*
X2075000Y404369D03*
D24*
G01*
X5225590Y2188859D03*
G36*
X5115000Y2756359D02*
G01*
X5535000Y2756359D01*
X5535000Y2401359D01*
X5115000Y2401359D01*
G37*
G01*
X5424409Y2188859D03*
D26*
G01*
X6027240Y1225000D03*
G01*
X5932759Y1225000D03*
M02*
