G04 Layer: BottomSilkLayer*
G04 EasyEDA v6.4.19.3, 2021-03-31T08:50:56+02:00*
G04 7e8d071977a24ced90268045b7a9a018,03b0b1bb86a94345b9bcc081285aab9b,10*
G04 Gerber Generator version 0.2*
G04 Scale: 100 percent, Rotated: No, Reflected: No *
G04 Dimensions in inches *
G04 leading zeros omitted , absolute positions ,3 integer and 6 decimal *
%FSLAX36Y36*%
%MOIN*%

%ADD36C,0.0080*%
%ADD37C,0.0197*%

%LPD*%
D37*
X6110000Y2718912D02*
G01*
X6110000Y2568589D01*
X6110000Y2718912D02*
G01*
X6045576Y2718912D01*
X6024102Y2711754D01*
X6016943Y2704596D01*
X6009785Y2690279D01*
X6009785Y2668805D01*
X6016943Y2654488D01*
X6024102Y2647330D01*
X6045576Y2640171D01*
X6110000Y2640171D01*
X5962541Y2668805D02*
G01*
X5962541Y2568589D01*
X5962541Y2625855D02*
G01*
X5955383Y2647330D01*
X5941067Y2661646D01*
X5926750Y2668805D01*
X5905276Y2668805D01*
X5858031Y2625855D02*
G01*
X5772133Y2625855D01*
X5772133Y2640171D01*
X5779291Y2654488D01*
X5786450Y2661646D01*
X5800766Y2668805D01*
X5822241Y2668805D01*
X5836557Y2661646D01*
X5850873Y2647330D01*
X5858031Y2625855D01*
X5858031Y2611538D01*
X5850873Y2590064D01*
X5836557Y2575747D01*
X5822241Y2568589D01*
X5800766Y2568589D01*
X5786450Y2575747D01*
X5772133Y2590064D01*
X5638990Y2647330D02*
G01*
X5653307Y2661646D01*
X5667623Y2668805D01*
X5689098Y2668805D01*
X5703414Y2661646D01*
X5717731Y2647330D01*
X5724889Y2625855D01*
X5724889Y2611538D01*
X5717731Y2590064D01*
X5703414Y2575747D01*
X5689098Y2568589D01*
X5667623Y2568589D01*
X5653307Y2575747D01*
X5638990Y2590064D01*
X5591746Y2718912D02*
G01*
X5591746Y2568589D01*
X5591746Y2640171D02*
G01*
X5570272Y2661646D01*
X5555955Y2668805D01*
X5534480Y2668805D01*
X5520164Y2661646D01*
X5513005Y2640171D01*
X5513005Y2568589D01*
X5379863Y2668805D02*
G01*
X5379863Y2568589D01*
X5379863Y2647330D02*
G01*
X5394179Y2661646D01*
X5408496Y2668805D01*
X5429970Y2668805D01*
X5444287Y2661646D01*
X5458603Y2647330D01*
X5465762Y2625855D01*
X5465762Y2611538D01*
X5458603Y2590064D01*
X5444287Y2575747D01*
X5429970Y2568589D01*
X5408496Y2568589D01*
X5394179Y2575747D01*
X5379863Y2590064D01*
X5332619Y2668805D02*
G01*
X5332619Y2568589D01*
X5332619Y2625855D02*
G01*
X5325461Y2647330D01*
X5311144Y2661646D01*
X5296828Y2668805D01*
X5275353Y2668805D01*
X5142212Y2668805D02*
G01*
X5142212Y2554272D01*
X5149369Y2532799D01*
X5156527Y2525641D01*
X5170844Y2518481D01*
X5192318Y2518481D01*
X5206635Y2525641D01*
X5142212Y2647330D02*
G01*
X5156527Y2661646D01*
X5170844Y2668805D01*
X5192318Y2668805D01*
X5206635Y2661646D01*
X5220951Y2647330D01*
X5228109Y2625855D01*
X5228109Y2611538D01*
X5220951Y2590064D01*
X5206635Y2575747D01*
X5192318Y2568589D01*
X5170844Y2568589D01*
X5156527Y2575747D01*
X5142212Y2590064D01*
X5094967Y2625855D02*
G01*
X5009068Y2625855D01*
X5009068Y2640171D01*
X5016228Y2654488D01*
X5023386Y2661646D01*
X5037701Y2668805D01*
X5059177Y2668805D01*
X5073492Y2661646D01*
X5087809Y2647330D01*
X5094967Y2625855D01*
X5094967Y2611538D01*
X5087809Y2590064D01*
X5073492Y2575747D01*
X5059177Y2568589D01*
X5037701Y2568589D01*
X5023386Y2575747D01*
X5009068Y2590064D01*
X4744215Y2683121D02*
G01*
X4751373Y2697437D01*
X4765690Y2711754D01*
X4780006Y2718912D01*
X4808639Y2718912D01*
X4822956Y2711754D01*
X4837272Y2697437D01*
X4844431Y2683121D01*
X4851589Y2661646D01*
X4851589Y2625855D01*
X4844431Y2604380D01*
X4837272Y2590064D01*
X4822956Y2575747D01*
X4808639Y2568589D01*
X4780006Y2568589D01*
X4765690Y2575747D01*
X4751373Y2590064D01*
X4744215Y2604380D01*
X4661180Y2668805D02*
G01*
X4675496Y2661646D01*
X4689813Y2647330D01*
X4696971Y2625855D01*
X4696971Y2611538D01*
X4689813Y2590064D01*
X4675496Y2575747D01*
X4661180Y2568589D01*
X4639706Y2568589D01*
X4625389Y2575747D01*
X4611073Y2590064D01*
X4603915Y2611538D01*
X4603915Y2625855D01*
X4611073Y2647330D01*
X4625389Y2661646D01*
X4639706Y2668805D01*
X4661180Y2668805D01*
X4556670Y2668805D02*
G01*
X4556670Y2568589D01*
X4556670Y2640171D02*
G01*
X4535196Y2661646D01*
X4520879Y2668805D01*
X4499405Y2668805D01*
X4485088Y2661646D01*
X4477930Y2640171D01*
X4477930Y2568589D01*
X4409213Y2718912D02*
G01*
X4409213Y2597222D01*
X4402053Y2575747D01*
X4387737Y2568589D01*
X4373422Y2568589D01*
X4430686Y2668805D02*
G01*
X4380580Y2668805D01*
X4326178Y2668805D02*
G01*
X4326178Y2568589D01*
X4326178Y2625855D02*
G01*
X4319018Y2647330D01*
X4304702Y2661646D01*
X4290387Y2668805D01*
X4268912Y2668805D01*
X4185877Y2668805D02*
G01*
X4200192Y2661646D01*
X4214510Y2647330D01*
X4221668Y2625855D01*
X4221668Y2611538D01*
X4214510Y2590064D01*
X4200192Y2575747D01*
X4185877Y2568589D01*
X4164402Y2568589D01*
X4150086Y2575747D01*
X4135770Y2590064D01*
X4128611Y2611538D01*
X4128611Y2625855D01*
X4135770Y2647330D01*
X4150086Y2661646D01*
X4164402Y2668805D01*
X4185877Y2668805D01*
X4081367Y2718912D02*
G01*
X4081367Y2568589D01*
X3816513Y2683121D02*
G01*
X3823671Y2697437D01*
X3837988Y2711754D01*
X3852304Y2718912D01*
X3880937Y2718912D01*
X3895254Y2711754D01*
X3909570Y2697437D01*
X3916728Y2683121D01*
X3923887Y2661646D01*
X3923887Y2625855D01*
X3916728Y2604380D01*
X3909570Y2590064D01*
X3895254Y2575747D01*
X3880937Y2568589D01*
X3852304Y2568589D01*
X3837988Y2575747D01*
X3823671Y2590064D01*
X3816513Y2604380D01*
X3769269Y2718912D02*
G01*
X3762111Y2711754D01*
X3754952Y2718912D01*
X3762111Y2726069D01*
X3769269Y2718912D01*
X3762111Y2668805D02*
G01*
X3762111Y2568589D01*
X3707709Y2668805D02*
G01*
X3707709Y2568589D01*
X3707709Y2625855D02*
G01*
X3700550Y2647330D01*
X3686234Y2661646D01*
X3671917Y2668805D01*
X3650443Y2668805D01*
X3517300Y2647330D02*
G01*
X3531617Y2661646D01*
X3545933Y2668805D01*
X3567408Y2668805D01*
X3581724Y2661646D01*
X3596041Y2647330D01*
X3603199Y2625855D01*
X3603199Y2611538D01*
X3596041Y2590064D01*
X3581724Y2575747D01*
X3567408Y2568589D01*
X3545933Y2568589D01*
X3531617Y2575747D01*
X3517300Y2590064D01*
X3470056Y2668805D02*
G01*
X3470056Y2597222D01*
X3462898Y2575747D01*
X3448582Y2568589D01*
X3427107Y2568589D01*
X3412791Y2575747D01*
X3391316Y2597222D01*
X3391316Y2668805D02*
G01*
X3391316Y2568589D01*
X3344072Y2718912D02*
G01*
X3336914Y2711754D01*
X3329756Y2718912D01*
X3336914Y2726069D01*
X3344072Y2718912D01*
X3336914Y2668805D02*
G01*
X3336914Y2568589D01*
X3261037Y2718912D02*
G01*
X3261037Y2597222D01*
X3253879Y2575747D01*
X3239562Y2568589D01*
X3225246Y2568589D01*
X3282512Y2668805D02*
G01*
X3232404Y2668805D01*
X6110000Y2471323D02*
G01*
X6067051Y2371109D01*
X6024102Y2471323D02*
G01*
X6067051Y2371109D01*
X5933908Y2521432D02*
G01*
X5955383Y2514272D01*
X5969699Y2492799D01*
X5976858Y2457008D01*
X5976858Y2435533D01*
X5969699Y2399742D01*
X5955383Y2378267D01*
X5933908Y2371109D01*
X5919592Y2371109D01*
X5898117Y2378267D01*
X5883801Y2399742D01*
X5876643Y2435533D01*
X5876643Y2457008D01*
X5883801Y2492799D01*
X5898117Y2514272D01*
X5919592Y2521432D01*
X5933908Y2521432D01*
X5829399Y2492799D02*
G01*
X5815082Y2499956D01*
X5793608Y2521432D01*
X5793608Y2371109D01*
D36*
X5505000Y465727D02*
G01*
X5505000Y389364D01*
X5454090Y465727D02*
G01*
X5454090Y389364D01*
X5505000Y429364D02*
G01*
X5454090Y429364D01*
X5386454Y440273D02*
G01*
X5386454Y389364D01*
X5386454Y429364D02*
G01*
X5393726Y436635D01*
X5401000Y440273D01*
X5411908Y440273D01*
X5419182Y436635D01*
X5426454Y429364D01*
X5430091Y418454D01*
X5430091Y411181D01*
X5426454Y400273D01*
X5419182Y393000D01*
X5411908Y389364D01*
X5401000Y389364D01*
X5393726Y393000D01*
X5386454Y400273D01*
X5362455Y440273D02*
G01*
X5362455Y389364D01*
X5362455Y425727D02*
G01*
X5351544Y436635D01*
X5344273Y440273D01*
X5333364Y440273D01*
X5326090Y436635D01*
X5322455Y425727D01*
X5322455Y389364D01*
X5258455Y440273D02*
G01*
X5298455Y389364D01*
X5298455Y440273D02*
G01*
X5258455Y440273D01*
X5298455Y389364D02*
G01*
X5258455Y389364D01*
X5234454Y418454D02*
G01*
X5190817Y418454D01*
X5190817Y425727D01*
X5194454Y433000D01*
X5198091Y436635D01*
X5205364Y440273D01*
X5216273Y440273D01*
X5223545Y436635D01*
X5230817Y429364D01*
X5234454Y418454D01*
X5234454Y411181D01*
X5230817Y400273D01*
X5223545Y393000D01*
X5216273Y389364D01*
X5205364Y389364D01*
X5198091Y393000D01*
X5190817Y400273D01*
X5110817Y465727D02*
G01*
X5110817Y411181D01*
X5107182Y400273D01*
X5099908Y393000D01*
X5088999Y389364D01*
X5081727Y389364D01*
X5070817Y393000D01*
X5063545Y400273D01*
X5059908Y411181D01*
X5059908Y465727D01*
X5006818Y465727D02*
G01*
X5035909Y389364D01*
X5006818Y465727D02*
G01*
X4977727Y389364D01*
X5025000Y414818D02*
G01*
X4988635Y414818D01*
X4902817Y454818D02*
G01*
X4910091Y462091D01*
X4921000Y465727D01*
X4935545Y465727D01*
X4946454Y462091D01*
X4953726Y454818D01*
X4953726Y447545D01*
X4950091Y440273D01*
X4946454Y436635D01*
X4939182Y433000D01*
X4917363Y425727D01*
X4910091Y422091D01*
X4906454Y418454D01*
X4902817Y411181D01*
X4902817Y400273D01*
X4910091Y393000D01*
X4921000Y389364D01*
X4935545Y389364D01*
X4946454Y393000D01*
X4953726Y400273D01*
X4813364Y480273D02*
G01*
X4878818Y363908D01*
X4789363Y465727D02*
G01*
X4789363Y389364D01*
X4738455Y465727D02*
G01*
X4738455Y389364D01*
X4789363Y429364D02*
G01*
X4738455Y429364D01*
X4685364Y465727D02*
G01*
X4714454Y389364D01*
X4685364Y465727D02*
G01*
X4656273Y389364D01*
X4703545Y414818D02*
G01*
X4667182Y414818D01*
X4632272Y465727D02*
G01*
X4632272Y389364D01*
X4632272Y465727D02*
G01*
X4599544Y465727D01*
X4588635Y462091D01*
X4585000Y458454D01*
X4581364Y451181D01*
X4581364Y443908D01*
X4585000Y436635D01*
X4588635Y433000D01*
X4599544Y429364D01*
X4632272Y429364D01*
X4606818Y429364D02*
G01*
X4581364Y389364D01*
X4557363Y465727D02*
G01*
X4557363Y389364D01*
X4557363Y465727D02*
G01*
X4531908Y465727D01*
X4521000Y462091D01*
X4513726Y454818D01*
X4510091Y447545D01*
X4506454Y436635D01*
X4506454Y418454D01*
X4510091Y407545D01*
X4513726Y400273D01*
X4521000Y393000D01*
X4531908Y389364D01*
X4557363Y389364D01*
X5505000Y265727D02*
G01*
X5505000Y189364D01*
X5505000Y265727D02*
G01*
X5479544Y265727D01*
X5468635Y262091D01*
X5461364Y254818D01*
X5457727Y247545D01*
X5454090Y236635D01*
X5454090Y218454D01*
X5457727Y207545D01*
X5461364Y200273D01*
X5468635Y193000D01*
X5479544Y189364D01*
X5505000Y189364D01*
X5430091Y218454D02*
G01*
X5386454Y218454D01*
X5386454Y225727D01*
X5390091Y233000D01*
X5393726Y236635D01*
X5401000Y240273D01*
X5411908Y240273D01*
X5419182Y236635D01*
X5426454Y229364D01*
X5430091Y218454D01*
X5430091Y211181D01*
X5426454Y200273D01*
X5419182Y193000D01*
X5411908Y189364D01*
X5401000Y189364D01*
X5393726Y193000D01*
X5386454Y200273D01*
X5322455Y229364D02*
G01*
X5326090Y236635D01*
X5336999Y240273D01*
X5347909Y240273D01*
X5358818Y236635D01*
X5362455Y229364D01*
X5358818Y222091D01*
X5351544Y218454D01*
X5333364Y214818D01*
X5326090Y211181D01*
X5322455Y203908D01*
X5322455Y200273D01*
X5326090Y193000D01*
X5336999Y189364D01*
X5347909Y189364D01*
X5358818Y193000D01*
X5362455Y200273D01*
X5298455Y265727D02*
G01*
X5294817Y262091D01*
X5291181Y265727D01*
X5294817Y269364D01*
X5298455Y265727D01*
X5294817Y240273D02*
G01*
X5294817Y189364D01*
X5223545Y240273D02*
G01*
X5223545Y182091D01*
X5227182Y171181D01*
X5230817Y167545D01*
X5238091Y163908D01*
X5248999Y163908D01*
X5256273Y167545D01*
X5223545Y229364D02*
G01*
X5230817Y236635D01*
X5238091Y240273D01*
X5248999Y240273D01*
X5256273Y236635D01*
X5263545Y229364D01*
X5267182Y218454D01*
X5267182Y211181D01*
X5263545Y200273D01*
X5256273Y193000D01*
X5248999Y189364D01*
X5238091Y189364D01*
X5230817Y193000D01*
X5223545Y200273D01*
X5199544Y240273D02*
G01*
X5199544Y189364D01*
X5199544Y225727D02*
G01*
X5188635Y236635D01*
X5181364Y240273D01*
X5170455Y240273D01*
X5163181Y236635D01*
X5159544Y225727D01*
X5159544Y189364D01*
X5079544Y265727D02*
G01*
X5079544Y189364D01*
X5079544Y229364D02*
G01*
X5072272Y236635D01*
X5065000Y240273D01*
X5054090Y240273D01*
X5046818Y236635D01*
X5039544Y229364D01*
X5035909Y218454D01*
X5035909Y211181D01*
X5039544Y200273D01*
X5046818Y193000D01*
X5054090Y189364D01*
X5065000Y189364D01*
X5072272Y193000D01*
X5079544Y200273D01*
X5008272Y240273D02*
G01*
X4986454Y189364D01*
X4964636Y240273D02*
G01*
X4986454Y189364D01*
X4993726Y174818D01*
X5001000Y167545D01*
X5008272Y163908D01*
X5011908Y163908D01*
X4884636Y265727D02*
G01*
X4884636Y189364D01*
X4884636Y265727D02*
G01*
X4851908Y265727D01*
X4841000Y262091D01*
X4837363Y258454D01*
X4833726Y251181D01*
X4833726Y240273D01*
X4837363Y233000D01*
X4841000Y229364D01*
X4851908Y225727D01*
X4884636Y225727D01*
X4809727Y218454D02*
G01*
X4766090Y218454D01*
X4766090Y225727D01*
X4769727Y233000D01*
X4773364Y236635D01*
X4780636Y240273D01*
X4791544Y240273D01*
X4798818Y236635D01*
X4806090Y229364D01*
X4809727Y218454D01*
X4809727Y211181D01*
X4806090Y200273D01*
X4798818Y193000D01*
X4791544Y189364D01*
X4780636Y189364D01*
X4773364Y193000D01*
X4766090Y200273D01*
X4698455Y265727D02*
G01*
X4698455Y189364D01*
X4698455Y229364D02*
G01*
X4705726Y236635D01*
X4713000Y240273D01*
X4723909Y240273D01*
X4731181Y236635D01*
X4738455Y229364D01*
X4742091Y218454D01*
X4742091Y211181D01*
X4738455Y200273D01*
X4731181Y193000D01*
X4723909Y189364D01*
X4713000Y189364D01*
X4705726Y193000D01*
X4698455Y200273D01*
X4674454Y240273D02*
G01*
X4674454Y189364D01*
X4674454Y218454D02*
G01*
X4670817Y229364D01*
X4663545Y236635D01*
X4656273Y240273D01*
X4645364Y240273D01*
X4603181Y240273D02*
G01*
X4610455Y236635D01*
X4617727Y229364D01*
X4621364Y218454D01*
X4621364Y211181D01*
X4617727Y200273D01*
X4610455Y193000D01*
X4603181Y189364D01*
X4592272Y189364D01*
X4585000Y193000D01*
X4577727Y200273D01*
X4574090Y211181D01*
X4574090Y218454D01*
X4577727Y229364D01*
X4585000Y236635D01*
X4592272Y240273D01*
X4603181Y240273D01*
X4542817Y203908D02*
G01*
X4546454Y200273D01*
X4550091Y203908D01*
X4546454Y207545D01*
X4542817Y203908D01*
X4542817Y196635D01*
X4550091Y189364D01*
X4462817Y265727D02*
G01*
X4462817Y189364D01*
X4462817Y265727D02*
G01*
X4430091Y265727D01*
X4419182Y262091D01*
X4415545Y258454D01*
X4411908Y251181D01*
X4411908Y243908D01*
X4415545Y236635D01*
X4419182Y233000D01*
X4430091Y229364D01*
X4462817Y229364D01*
X4437363Y229364D02*
G01*
X4411908Y189364D01*
X4387909Y265727D02*
G01*
X4384273Y262091D01*
X4380636Y265727D01*
X4384273Y269364D01*
X4387909Y265727D01*
X4384273Y240273D02*
G01*
X4384273Y189364D01*
X4313000Y229364D02*
G01*
X4320272Y236635D01*
X4327545Y240273D01*
X4338455Y240273D01*
X4345726Y236635D01*
X4353000Y229364D01*
X4356635Y218454D01*
X4356635Y211181D01*
X4353000Y200273D01*
X4345726Y193000D01*
X4338455Y189364D01*
X4327545Y189364D01*
X4320272Y193000D01*
X4313000Y200273D01*
X4288999Y265727D02*
G01*
X4288999Y189364D01*
X4288999Y225727D02*
G01*
X4278091Y236635D01*
X4270817Y240273D01*
X4259908Y240273D01*
X4252636Y236635D01*
X4248999Y225727D01*
X4248999Y189364D01*
X4181364Y240273D02*
G01*
X4181364Y189364D01*
X4181364Y229364D02*
G01*
X4188635Y236635D01*
X4195909Y240273D01*
X4206818Y240273D01*
X4214090Y236635D01*
X4221364Y229364D01*
X4225000Y218454D01*
X4225000Y211181D01*
X4221364Y200273D01*
X4214090Y193000D01*
X4206818Y189364D01*
X4195909Y189364D01*
X4188635Y193000D01*
X4181364Y200273D01*
X4157363Y240273D02*
G01*
X4157363Y189364D01*
X4157363Y218454D02*
G01*
X4153726Y229364D01*
X4146454Y236635D01*
X4139182Y240273D01*
X4128272Y240273D01*
X4060636Y265727D02*
G01*
X4060636Y189364D01*
X4060636Y229364D02*
G01*
X4067908Y236635D01*
X4075182Y240273D01*
X4086090Y240273D01*
X4093364Y236635D01*
X4100636Y229364D01*
X4104273Y218454D01*
X4104273Y211181D01*
X4100636Y200273D01*
X4093364Y193000D01*
X4086090Y189364D01*
X4075182Y189364D01*
X4067908Y193000D01*
X4060636Y200273D01*
X4029363Y203908D02*
G01*
X4033000Y200273D01*
X4036635Y203908D01*
X4033000Y207545D01*
X4029363Y203908D01*
X4029363Y196635D01*
X4036635Y189364D01*
X3949363Y265727D02*
G01*
X3949363Y189364D01*
X3949363Y265727D02*
G01*
X3923909Y265727D01*
X3913000Y262091D01*
X3905726Y254818D01*
X3902091Y247545D01*
X3898455Y236635D01*
X3898455Y218454D01*
X3902091Y207545D01*
X3905726Y200273D01*
X3913000Y193000D01*
X3923909Y189364D01*
X3949363Y189364D01*
X3874454Y265727D02*
G01*
X3870817Y262091D01*
X3867182Y265727D01*
X3870817Y269364D01*
X3874454Y265727D01*
X3870817Y240273D02*
G01*
X3870817Y189364D01*
X3843181Y240273D02*
G01*
X3843181Y189364D01*
X3843181Y225727D02*
G01*
X3832272Y236635D01*
X3825000Y240273D01*
X3814090Y240273D01*
X3806818Y236635D01*
X3803181Y225727D01*
X3803181Y189364D01*
X3803181Y225727D02*
G01*
X3792272Y236635D01*
X3785000Y240273D01*
X3774090Y240273D01*
X3766818Y236635D01*
X3763181Y225727D01*
X3763181Y189364D01*
X3739182Y265727D02*
G01*
X3735545Y262091D01*
X3731908Y265727D01*
X3735545Y269364D01*
X3739182Y265727D01*
X3735545Y240273D02*
G01*
X3735545Y189364D01*
X3696999Y265727D02*
G01*
X3696999Y203908D01*
X3693364Y193000D01*
X3686090Y189364D01*
X3678818Y189364D01*
X3707908Y240273D02*
G01*
X3682455Y240273D01*
X3654817Y240273D02*
G01*
X3654817Y189364D01*
X3654817Y218454D02*
G01*
X3651181Y229364D01*
X3643909Y236635D01*
X3636635Y240273D01*
X3625726Y240273D01*
X3601727Y265727D02*
G01*
X3598091Y262091D01*
X3594454Y265727D01*
X3598091Y269364D01*
X3601727Y265727D01*
X3598091Y240273D02*
G01*
X3598091Y189364D01*
X3566818Y240273D02*
G01*
X3545000Y189364D01*
X3523181Y240273D02*
G01*
X3545000Y189364D01*
X3552272Y174818D01*
X3559544Y167545D01*
X3566818Y163908D01*
X3570455Y163908D01*
M02*
