G04 Layer: TopSolderMaskLayer*
G04 EasyEDA v6.4.19.3, 2021-03-31T08:50:56+02:00*
G04 7e8d071977a24ced90268045b7a9a018,03b0b1bb86a94345b9bcc081285aab9b,10*
G04 Gerber Generator version 0.2*
G04 Scale: 100 percent, Rotated: No, Reflected: No *
G04 Dimensions in inches *
G04 leading zeros omitted , absolute positions ,3 integer and 6 decimal *
%FSLAX36Y36*%
%MOIN*%

%ADD11C,0.0157*%
%ADD40C,0.0680*%
%ADD42C,0.0749*%
%ADD45C,0.0867*%
%ADD46C,0.1655*%
%ADD47C,0.1261*%
%ADD48C,0.0634*%
%ADD58C,0.1253*%

%LPD*%
G36*
X2481000Y925999D02*
G01*
X2481000Y994000D01*
X2548999Y994000D01*
X2548999Y925999D01*
G37*
D40*
G01*
X2515000Y1060000D03*
G01*
X2615000Y960000D03*
G01*
X2615000Y1060000D03*
G36*
X2482500Y102500D02*
G01*
X2482500Y177500D01*
X2557500Y177500D01*
X2557500Y102500D01*
G37*
D42*
G01*
X2520000Y240000D03*
G01*
X2620000Y140000D03*
G01*
X2620000Y240000D03*
G01*
X2720000Y140000D03*
G01*
X2720000Y240000D03*
G01*
X2820000Y140000D03*
G01*
X2820000Y240000D03*
G36*
X5868699Y2314299D02*
G01*
X5868699Y2408899D01*
X5961300Y2408899D01*
X5961300Y2314299D01*
G37*
G36*
X5868699Y2141100D02*
G01*
X5868699Y2235700D01*
X5961300Y2235700D01*
X5961300Y2141100D01*
G37*
G36*
X4427500Y2502300D02*
G01*
X4427500Y2553600D01*
X4502500Y2553600D01*
X4502500Y2502300D01*
G37*
G36*
X4427500Y2616399D02*
G01*
X4427500Y2667700D01*
X4502500Y2667700D01*
X4502500Y2616399D01*
G37*
D45*
G01*
X4550000Y2855000D03*
G01*
X4650000Y2855000D03*
G01*
X2081649Y2400000D03*
G01*
X2538350Y2400000D03*
G01*
X3253350Y2405000D03*
G01*
X2796649Y2405000D03*
D46*
G01*
X2742790Y2725000D03*
G01*
X3042010Y2720000D03*
G01*
X1967200Y2725000D03*
G01*
X1667989Y2725000D03*
D47*
G01*
X6401999Y2579000D03*
G01*
X6401059Y2199980D03*
G01*
X896700Y2395999D03*
G01*
X897640Y2775019D03*
G01*
X896700Y275999D03*
G01*
X897640Y655019D03*
D48*
G01*
X4443819Y1284209D03*
G01*
X4345389Y1284209D03*
G01*
X3743029Y1284209D03*
G01*
X3546180Y1284209D03*
G01*
X3546180Y685790D03*
G01*
X3743029Y685790D03*
G01*
X4345389Y685790D03*
G01*
X4443819Y685790D03*
G36*
X2536300Y1323000D02*
G01*
X2536300Y1348699D01*
X2602399Y1348699D01*
X2602399Y1323000D01*
G37*
G36*
X2536300Y1297399D02*
G01*
X2536300Y1323099D01*
X2602399Y1323099D01*
X2602399Y1297399D01*
G37*
G36*
X2536300Y1271799D02*
G01*
X2536300Y1297500D01*
X2602399Y1297500D01*
X2602399Y1271799D01*
G37*
G36*
X2536300Y1246199D02*
G01*
X2536300Y1271900D01*
X2602399Y1271900D01*
X2602399Y1246199D01*
G37*
G36*
X2767600Y1246199D02*
G01*
X2767600Y1271900D01*
X2833699Y1271900D01*
X2833699Y1246199D01*
G37*
G36*
X2767600Y1271799D02*
G01*
X2767600Y1297500D01*
X2833699Y1297500D01*
X2833699Y1271799D01*
G37*
G36*
X2767600Y1297399D02*
G01*
X2767600Y1323099D01*
X2833699Y1323099D01*
X2833699Y1297399D01*
G37*
G36*
X2767600Y1323000D02*
G01*
X2767600Y1348699D01*
X2833699Y1348699D01*
X2833699Y1323000D01*
G37*
G36*
X2539200Y573200D02*
G01*
X2539200Y606799D01*
X2607399Y606799D01*
X2607399Y573200D01*
G37*
G36*
X2539200Y523200D02*
G01*
X2539200Y556799D01*
X2607399Y556799D01*
X2607399Y523200D01*
G37*
G36*
X2539200Y473200D02*
G01*
X2539200Y506799D01*
X2607399Y506799D01*
X2607399Y473200D01*
G37*
G36*
X2539200Y423200D02*
G01*
X2539200Y456799D01*
X2607399Y456799D01*
X2607399Y423200D01*
G37*
G36*
X2752700Y423200D02*
G01*
X2752700Y456799D01*
X2820799Y456799D01*
X2820799Y423200D01*
G37*
G36*
X2752700Y473200D02*
G01*
X2752700Y506799D01*
X2820799Y506799D01*
X2820799Y473200D01*
G37*
G36*
X2752700Y523200D02*
G01*
X2752700Y556799D01*
X2820799Y556799D01*
X2820799Y523200D01*
G37*
G36*
X2752700Y573200D02*
G01*
X2752700Y606799D01*
X2820799Y606799D01*
X2820799Y573200D01*
G37*
G36*
X2745200Y770999D02*
G01*
X2745200Y819200D01*
X2824799Y819200D01*
X2824799Y770999D01*
G37*
G36*
X2745200Y660799D02*
G01*
X2745200Y709000D01*
X2824799Y709000D01*
X2824799Y660799D01*
G37*
G36*
X2760200Y1405799D02*
G01*
X2760200Y1454000D01*
X2839799Y1454000D01*
X2839799Y1405799D01*
G37*
G36*
X2760200Y1515999D02*
G01*
X2760200Y1564200D01*
X2839799Y1564200D01*
X2839799Y1515999D01*
G37*
G36*
X2425600Y1464299D02*
G01*
X2425600Y1513600D01*
X2504399Y1513600D01*
X2504399Y1464299D01*
G37*
G36*
X2425600Y1586300D02*
G01*
X2425600Y1635700D01*
X2504399Y1635700D01*
X2504399Y1586300D01*
G37*
G36*
X2230600Y1996300D02*
G01*
X2230600Y2045700D01*
X2309399Y2045700D01*
X2309399Y1996300D01*
G37*
G36*
X2230600Y1874299D02*
G01*
X2230600Y1923600D01*
X2309399Y1923600D01*
X2309399Y1874299D01*
G37*
G36*
X2425600Y1876300D02*
G01*
X2425600Y1925599D01*
X2504399Y1925599D01*
X2504399Y1876300D01*
G37*
G36*
X2425600Y1994400D02*
G01*
X2425600Y2043699D01*
X2504399Y2043699D01*
X2504399Y1994400D01*
G37*
G36*
X3210600Y579299D02*
G01*
X3210600Y628600D01*
X3289399Y628600D01*
X3289399Y579299D01*
G37*
G36*
X3210600Y701300D02*
G01*
X3210600Y750700D01*
X3289399Y750700D01*
X3289399Y701300D01*
G37*
G36*
X3210600Y894299D02*
G01*
X3210600Y943600D01*
X3289399Y943600D01*
X3289399Y894299D01*
G37*
G36*
X3210600Y1016300D02*
G01*
X3210600Y1065700D01*
X3289399Y1065700D01*
X3289399Y1016300D01*
G37*
G36*
X3210600Y1224299D02*
G01*
X3210600Y1273600D01*
X3289399Y1273600D01*
X3289399Y1224299D01*
G37*
G36*
X3210600Y1346300D02*
G01*
X3210600Y1395700D01*
X3289399Y1395700D01*
X3289399Y1346300D01*
G37*
G36*
X3210600Y1534299D02*
G01*
X3210600Y1583600D01*
X3289399Y1583600D01*
X3289399Y1534299D01*
G37*
G36*
X3210600Y1656300D02*
G01*
X3210600Y1705700D01*
X3289399Y1705700D01*
X3289399Y1656300D01*
G37*
G36*
X3210600Y1874299D02*
G01*
X3210600Y1923600D01*
X3289399Y1923600D01*
X3289399Y1874299D01*
G37*
G36*
X3210600Y1996300D02*
G01*
X3210600Y2045700D01*
X3289399Y2045700D01*
X3289399Y1996300D01*
G37*
G36*
X2035600Y1874299D02*
G01*
X2035600Y1923600D01*
X2114399Y1923600D01*
X2114399Y1874299D01*
G37*
G36*
X2035600Y1996300D02*
G01*
X2035600Y2045700D01*
X2114399Y2045700D01*
X2114399Y1996300D01*
G37*
G36*
X2035600Y1534299D02*
G01*
X2035600Y1583600D01*
X2114399Y1583600D01*
X2114399Y1534299D01*
G37*
G36*
X2035600Y1656300D02*
G01*
X2035600Y1705700D01*
X2114399Y1705700D01*
X2114399Y1656300D01*
G37*
G36*
X2035600Y1229299D02*
G01*
X2035600Y1278600D01*
X2114399Y1278600D01*
X2114399Y1229299D01*
G37*
G36*
X2035600Y1351300D02*
G01*
X2035600Y1400700D01*
X2114399Y1400700D01*
X2114399Y1351300D01*
G37*
G36*
X2035600Y894299D02*
G01*
X2035600Y943600D01*
X2114399Y943600D01*
X2114399Y894299D01*
G37*
G36*
X2035600Y1016300D02*
G01*
X2035600Y1065700D01*
X2114399Y1065700D01*
X2114399Y1016300D01*
G37*
G36*
X2035600Y579299D02*
G01*
X2035600Y628600D01*
X2114399Y628600D01*
X2114399Y579299D01*
G37*
G36*
X2035600Y701300D02*
G01*
X2035600Y750700D01*
X2114399Y750700D01*
X2114399Y701300D01*
G37*
G36*
X3573900Y2310200D02*
G01*
X3573900Y2349699D01*
X3621199Y2349699D01*
X3621199Y2310200D01*
G37*
G36*
X3573900Y2210200D02*
G01*
X3573900Y2249699D01*
X3621199Y2249699D01*
X3621199Y2210200D01*
G37*
G36*
X3829799Y2210200D02*
G01*
X3829799Y2249699D01*
X3877100Y2249699D01*
X3877100Y2210200D01*
G37*
G36*
X3829799Y2310200D02*
G01*
X3829799Y2349699D01*
X3877100Y2349699D01*
X3877100Y2310200D01*
G37*
G36*
X2232500Y1342100D02*
G01*
X2232500Y1395399D01*
X2307500Y1395399D01*
X2307500Y1342100D01*
G37*
G36*
X2232500Y1224000D02*
G01*
X2232500Y1277300D01*
X2307500Y1277300D01*
X2307500Y1224000D01*
G37*
G36*
X3212500Y259600D02*
G01*
X3212500Y312899D01*
X3287500Y312899D01*
X3287500Y259600D01*
G37*
G36*
X3212500Y377699D02*
G01*
X3212500Y430999D01*
X3287500Y430999D01*
X3287500Y377699D01*
G37*
G36*
X2982500Y582100D02*
G01*
X2982500Y635399D01*
X3057500Y635399D01*
X3057500Y582100D01*
G37*
G36*
X2982500Y464000D02*
G01*
X2982500Y517300D01*
X3057500Y517300D01*
X3057500Y464000D01*
G37*
G36*
X2337500Y579600D02*
G01*
X2337500Y632899D01*
X2412500Y632899D01*
X2412500Y579600D01*
G37*
G36*
X2337500Y697699D02*
G01*
X2337500Y750999D01*
X2412500Y750999D01*
X2412500Y697699D01*
G37*
G36*
X2037500Y259600D02*
G01*
X2037500Y312899D01*
X2112500Y312899D01*
X2112500Y259600D01*
G37*
G36*
X2037500Y377699D02*
G01*
X2037500Y430999D01*
X2112500Y430999D01*
X2112500Y377699D01*
G37*
G36*
X5196800Y2117399D02*
G01*
X5196800Y2260399D01*
X5254300Y2260399D01*
X5254300Y2117399D01*
G37*
G36*
X5111000Y2397399D02*
G01*
X5111000Y2760399D01*
X5538999Y2760399D01*
X5538999Y2397399D01*
G37*
G36*
X5395699Y2117399D02*
G01*
X5395699Y2260399D01*
X5453199Y2260399D01*
X5453199Y2117399D01*
G37*
D47*
G01*
X6331999Y714000D03*
G01*
X6331059Y334980D03*
G36*
X6003599Y1201300D02*
G01*
X6003599Y1248699D01*
X6050900Y1248699D01*
X6050900Y1201300D01*
G37*
G36*
X5909099Y1201300D02*
G01*
X5909099Y1248699D01*
X5956400Y1248699D01*
X5956400Y1201300D01*
G37*
D46*
G01*
X1545000Y952210D03*
G01*
X1540000Y652989D03*
G01*
X1545000Y1727800D03*
G01*
X1545000Y2027010D03*
D58*
G01*
X5710000Y1682010D03*
G01*
X5710000Y1382010D03*
G01*
X5710000Y335000D03*
G01*
X5710000Y635000D03*
D11*
G75*
G01
X2278840Y1532130D02*
G03X2278840Y1532130I-7070J0D01*
G75*
G01
X2687070Y2230000D02*
G03X2687070Y2230000I-7070J0D01*
M02*
