M48
INCH,LZ
;FILE_FORMAT=2:4
;TYPE=PLATED
;Layer: Drill PTH
;EasyEDA v6.4.19.3, 2021-03-31T08:50:56+02:00
;7e8d071977a24ced90268045b7a9a018,03b0b1bb86a94345b9bcc081285aab9b,10
;Gerber Generator version 0.2
;Holesize 1 = 0.0120 inch
T01C0.0120
;Holesize 2 = 0.0350 inch
T02C0.0350
;Holesize 3 = 0.0360 inch
T03C0.0360
;Holesize 4 = 0.0430 inch
T04C0.0430
;Holesize 5 = 0.0440 inch
T05C0.0440
;Holesize 6 = 0.0470 inch
T06C0.0470
;Holesize 7 = 0.0590 inch
T07C0.0590
;Holesize 8 = 0.0630 inch
T08C0.0630
;Holesize 9 = 0.0780 inch
T09C0.0780
%
G05
G90
T01
X028850Y007250
X035150Y023300
X031350Y022300
X028850Y014675
X033450Y022300
T02
X044438Y012842G85X044438Y012842
X043454Y012842G85X043454Y012842
X037430Y012842G85X037430Y012842
X035462Y012842G85X035462Y012842
X035462Y006858G85X035462Y006858
X037430Y006858G85X037430Y006858
X043454Y006858G85X043454Y006858
X044438Y006858G85X044438Y006858
T03
X025150Y009600
X025150Y010600
X026150Y009600
X026150Y010600
T04
X025200Y001400
X025200Y002400
X026200Y001400
X026200Y002400
X027200Y001400
X027200Y002400
X028200Y001400
X028200Y002400
T05
X045500Y028550G85X045500Y028550
X046500Y028550G85X046500Y028550
T06
X020817Y024000
X025383Y024000
X032533Y024050
X027967Y024050
T07
X064020Y025790
X064011Y022000
X008967Y023960
X008976Y027750
X008967Y002760
X008976Y006550
X063320Y007140
X063311Y003350
T08
X027428Y027250
X030420Y027200
X019672Y027250
X016680Y027250
X015450Y009522
X015400Y006530
X015450Y017278
X015450Y020270
T09
X057100Y016820G85X057100Y016820
X057100Y013820G85X057100Y013820
X057100Y003350G85X057100Y003350
X057100Y006350G85X057100Y006350
M30
